<svg xmlns="http://www.w3.org/2000/svg" width="1920" height="1080"><path d="M610,1287L191,1289L834,1327Z" fill="#bebebe" stroke="#bebebe" stroke-width="1.51"/><path d="M191,1289L1,1320L834,1327Z" fill="#b5b5b5" stroke="#b5b5b5" stroke-width="1.51"/><path d="M92,-243L453,-238L1129,-240Z" fill="#bebebe" stroke="#bebebe" stroke-width="1.51"/><path d="M453,-238L761,-201L1129,-240Z" fill="#c8c8c8" stroke="#c8c8c8" stroke-width="1.51"/><path d="M1129,-240L1466,-204L1600,-223Z" fill="#bdbdbd" stroke="#bdbdbd" stroke-width="1.51"/><path d="M1356,1317L1173,1322L1659,1321Z" fill="#bdbdbd" stroke="#bdbdbd" stroke-width="1.51"/><path d="M1600,-223L1799,-224L1950,-234Z" fill="#adadad" stroke="#adadad" stroke-width="1.51"/><path d="M1129,-240L1600,-223L1950,-234Z" fill="#b6b6b6" stroke="#b6b6b6" stroke-width="1.51"/><path d="M1909,414L1968,584L2082,576Z" fill="#d2d2d2" stroke="#d2d2d2" stroke-width="1.51"/><path d="M1909,414L2082,576L2093,362Z" fill="#cccccc" stroke="#cccccc" stroke-width="1.51"/><path d="M2066,111L2037,248L2093,362Z" fill="#bebebe" stroke="#bebebe" stroke-width="1.51"/><path d="M2064,-225L1988,-97L2110,-22Z" fill="#a9a9a9" stroke="#a9a9a9" stroke-width="1.51"/><path d="M2066,111L2093,362L2110,-22Z" fill="#b8b8b8" stroke="#b8b8b8" stroke-width="1.51"/><path d="M2061,1134L1949,1301L2131,1285Z" fill="#a7a7a7" stroke="#a7a7a7" stroke-width="1.51"/><path d="M1984,985L2061,1134L2132,1011Z" fill="#b2b2b2" stroke="#b2b2b2" stroke-width="1.51"/><path d="M2061,1134L2131,1285L2132,1011Z" fill="#aaaaaa" stroke="#aaaaaa" stroke-width="1.51"/><path d="M2082,576L2100,707L2134,813Z" fill="#c4c4c4" stroke="#c4c4c4" stroke-width="1.51"/><path d="M2093,362L2082,576L2134,813Z" fill="#cccccc" stroke="#cccccc" stroke-width="1.51"/><path d="M2100,707L1943,850L2134,813Z" fill="#c1c1c1" stroke="#c1c1c1" stroke-width="1.51"/><path d="M1984,985L2132,1011L2134,813Z" fill="#b7b7b7" stroke="#b7b7b7" stroke-width="1.51"/><path d="M1943,850L1984,985L2134,813Z" fill="#bdbdbd" stroke="#bdbdbd" stroke-width="1.51"/><path d="M2110,-22L2093,362L2134,813Z" fill="#c4c4c4" stroke="#c4c4c4" stroke-width="1.51"/><path d="M1988,-97L1958,129L2066,111Z" fill="#b4b4b4" stroke="#b4b4b4" stroke-width="1.51"/><path d="M2082,576L1968,584L2100,707Z" fill="#cccccc" stroke="#cccccc" stroke-width="1.51"/><path d="M1968,584L1939,692L2100,707Z" fill="#cbcbcb" stroke="#cbcbcb" stroke-width="1.51"/><path d="M1939,692L1943,850L2100,707Z" fill="#c6c6c6" stroke="#c6c6c6" stroke-width="1.51"/><path d="M1988,-97L2066,111L2110,-22Z" fill="#afafaf" stroke="#afafaf" stroke-width="1.51"/><path d="M1958,129L2037,248L2066,111Z" fill="#bbbbbb" stroke="#bbbbbb" stroke-width="1.51"/><path d="M2037,248L1909,414L2093,362Z" fill="#c6c6c6" stroke="#c6c6c6" stroke-width="1.51"/><path d="M1910,1124L1949,1301L2061,1134Z" fill="#adadad" stroke="#adadad" stroke-width="1.51"/><path d="M1984,985L1910,1124L2061,1134Z" fill="#b2b2b2" stroke="#b2b2b2" stroke-width="1.51"/><path d="M1950,-234L1988,-97L2064,-225Z" fill="#a7a7a7" stroke="#a7a7a7" stroke-width="1.51"/><path d="M1914,218L1909,414L2037,248Z" fill="#c6c6c6" stroke="#c6c6c6" stroke-width="1.51"/><path d="M1790,35L1958,129L1988,-97Z" fill="#b7b7b7" stroke="#b7b7b7" stroke-width="1.51"/><path d="M1958,129L1914,218L2037,248Z" fill="#bfbfbf" stroke="#bfbfbf" stroke-width="1.51"/><path d="M1816,277L1909,414L1914,218Z" fill="#c9c9c9" stroke="#c9c9c9" stroke-width="1.51"/><path d="M1792,1253L1659,1321L1949,1301Z" fill="#adadad" stroke="#adadad" stroke-width="1.51"/><path d="M1910,1124L1822,1147L1949,1301Z" fill="#afafaf" stroke="#afafaf" stroke-width="1.51"/><path d="M1799,-224L1788,-81L1950,-234Z" fill="#adadad" stroke="#adadad" stroke-width="1.51"/><path d="M1909,414L1810,446L1968,584Z" fill="#d3d3d3" stroke="#d3d3d3" stroke-width="1.51"/><path d="M1943,850L1803,840L1984,985Z" fill="#c1c1c1" stroke="#c1c1c1" stroke-width="1.51"/><path d="M1803,840L1742,963L1984,985Z" fill="#c1c1c1" stroke="#c1c1c1" stroke-width="1.51"/><path d="M1950,-234L1788,-81L1988,-97Z" fill="#adadad" stroke="#adadad" stroke-width="1.51"/><path d="M1788,-81L1790,35L1988,-97Z" fill="#b5b5b5" stroke="#b5b5b5" stroke-width="1.51"/><path d="M1822,1147L1792,1253L1949,1301Z" fill="#afafaf" stroke="#afafaf" stroke-width="1.51"/><path d="M1742,963L1910,1124L1984,985Z" fill="#bababa" stroke="#bababa" stroke-width="1.51"/><path d="M1939,692L1803,840L1943,850Z" fill="#c7c7c7" stroke="#c7c7c7" stroke-width="1.51"/><path d="M1810,446L1814,653L1968,584Z" fill="#d7d7d7" stroke="#d7d7d7" stroke-width="1.51"/><path d="M1814,653L1939,692L1968,584Z" fill="#d0d0d0" stroke="#d0d0d0" stroke-width="1.51"/><path d="M1790,35L1914,218L1958,129Z" fill="#bebebe" stroke="#bebebe" stroke-width="1.51"/><path d="M1742,963L1822,1147L1910,1124Z" fill="#b9b9b9" stroke="#b9b9b9" stroke-width="1.51"/><path d="M1814,653L1803,840L1939,692Z" fill="#cdcdcd" stroke="#cdcdcd" stroke-width="1.51"/><path d="M1810,446L1744,492L1814,653Z" fill="#dbdbdb" stroke="#dbdbdb" stroke-width="1.51"/><path d="M1816,277L1810,446L1909,414Z" fill="#cfcfcf" stroke="#cfcfcf" stroke-width="1.51"/><path d="M1790,35L1816,277L1914,218Z" fill="#c3c3c3" stroke="#c3c3c3" stroke-width="1.51"/><path d="M1489,1288L1356,1317L1659,1321Z" fill="#b9b9b9" stroke="#b9b9b9" stroke-width="1.51"/><path d="M1644,55L1634,211L1790,35Z" fill="#c5c5c5" stroke="#c5c5c5" stroke-width="1.51"/><path d="M1690,850L1742,963L1803,840Z" fill="#c8c8c8" stroke="#c8c8c8" stroke-width="1.51"/><path d="M1594,343L1744,492L1810,446Z" fill="#d8d8d8" stroke="#d8d8d8" stroke-width="1.51"/><path d="M1690,850L1803,840L1814,653Z" fill="#cecece" stroke="#cecece" stroke-width="1.51"/><path d="M1590,708L1690,850L1814,653Z" fill="#d3d3d3" stroke="#d3d3d3" stroke-width="1.51"/><path d="M1744,492L1632,563L1814,653Z" fill="#dcdcdc" stroke="#dcdcdc" stroke-width="1.51"/><path d="M1594,343L1810,446L1816,277Z" fill="#d2d2d2" stroke="#d2d2d2" stroke-width="1.51"/><path d="M1790,35L1634,211L1816,277Z" fill="#c7c7c7" stroke="#c7c7c7" stroke-width="1.51"/><path d="M1742,963L1651,997L1822,1147Z" fill="#bfbfbf" stroke="#bfbfbf" stroke-width="1.51"/><path d="M1651,997L1650,1165L1822,1147Z" fill="#bdbdbd" stroke="#bdbdbd" stroke-width="1.51"/><path d="M1650,1165L1792,1253L1822,1147Z" fill="#b6b6b6" stroke="#b6b6b6" stroke-width="1.51"/><path d="M1600,-223L1788,-81L1799,-224Z" fill="#b3b3b3" stroke="#b3b3b3" stroke-width="1.51"/><path d="M1634,211L1594,343L1816,277Z" fill="#d0d0d0" stroke="#d0d0d0" stroke-width="1.51"/><path d="M1632,563L1590,708L1814,653Z" fill="#dadada" stroke="#dadada" stroke-width="1.51"/><path d="M1788,-81L1644,55L1790,35Z" fill="#bdbdbd" stroke="#bdbdbd" stroke-width="1.51"/><path d="M1601,-16L1644,55L1788,-81Z" fill="#bebebe" stroke="#bebebe" stroke-width="1.51"/><path d="M1600,-223L1601,-16L1788,-81Z" fill="#b9b9b9" stroke="#b9b9b9" stroke-width="1.51"/><path d="M1650,1165L1659,1321L1792,1253Z" fill="#b4b4b4" stroke="#b4b4b4" stroke-width="1.51"/><path d="M1690,850L1651,997L1742,963Z" fill="#c7c7c7" stroke="#c7c7c7" stroke-width="1.51"/><path d="M1594,343L1632,563L1744,492Z" fill="#dddddd" stroke="#dddddd" stroke-width="1.51"/><path d="M1481,402L1540,557L1594,343Z" fill="#e0e0e0" stroke="#e0e0e0" stroke-width="1.51"/><path d="M1594,343L1540,557L1632,563Z" fill="#e0e0e0" stroke="#e0e0e0" stroke-width="1.51"/><path d="M1538,129L1634,211L1644,55Z" fill="#cacaca" stroke="#cacaca" stroke-width="1.51"/><path d="M1590,708L1471,790L1690,850Z" fill="#d5d5d5" stroke="#d5d5d5" stroke-width="1.51"/><path d="M1487,1007L1651,997L1690,850Z" fill="#cacaca" stroke="#cacaca" stroke-width="1.51"/><path d="M1471,790L1487,1007L1690,850Z" fill="#d0d0d0" stroke="#d0d0d0" stroke-width="1.51"/><path d="M1600,-223L1466,-204L1601,-16Z" fill="#bbbbbb" stroke="#bbbbbb" stroke-width="1.51"/><path d="M1540,557L1590,708L1632,563Z" fill="#e0e0e0" stroke="#e0e0e0" stroke-width="1.51"/><path d="M1514,265L1594,343L1634,211Z" fill="#d4d4d4" stroke="#d4d4d4" stroke-width="1.51"/><path d="M1467,1093L1650,1165L1651,997Z" fill="#c2c2c2" stroke="#c2c2c2" stroke-width="1.51"/><path d="M1487,1007L1467,1093L1651,997Z" fill="#c8c8c8" stroke="#c8c8c8" stroke-width="1.51"/><path d="M1650,1165L1489,1288L1659,1321Z" fill="#b8b8b8" stroke="#b8b8b8" stroke-width="1.51"/><path d="M1467,1093L1489,1288L1650,1165Z" fill="#bfbfbf" stroke="#bfbfbf" stroke-width="1.51"/><path d="M1466,-204L1451,-25L1601,-16Z" fill="#c1c1c1" stroke="#c1c1c1" stroke-width="1.51"/><path d="M1601,-16L1538,129L1644,55Z" fill="#c6c6c6" stroke="#c6c6c6" stroke-width="1.51"/><path d="M1538,129L1514,265L1634,211Z" fill="#d0d0d0" stroke="#d0d0d0" stroke-width="1.51"/><path d="M1540,557L1435,648L1590,708Z" fill="#e1e1e1" stroke="#e1e1e1" stroke-width="1.51"/><path d="M1451,-25L1538,129L1601,-16Z" fill="#c7c7c7" stroke="#c7c7c7" stroke-width="1.51"/><path d="M1514,265L1481,402L1594,343Z" fill="#dadada" stroke="#dadada" stroke-width="1.51"/><path d="M1435,648L1471,790L1590,708Z" fill="#dddddd" stroke="#dddddd" stroke-width="1.51"/><path d="M761,-201L864,-191L1129,-240Z" fill="#cfcfcf" stroke="#cfcfcf" stroke-width="1.51"/><path d="M1129,-240L1373,-155L1466,-204Z" fill="#c2c2c2" stroke="#c2c2c2" stroke-width="1.51"/><path d="M1379,-76L1451,-25L1466,-204Z" fill="#c3c3c3" stroke="#c3c3c3" stroke-width="1.51"/><path d="M1471,790L1346,818L1487,1007Z" fill="#d6d6d6" stroke="#d6d6d6" stroke-width="1.51"/><path d="M1368,94L1514,265L1538,129Z" fill="#d1d1d1" stroke="#d1d1d1" stroke-width="1.51"/><path d="M1451,-25L1368,94L1538,129Z" fill="#cccccc" stroke="#cccccc" stroke-width="1.51"/><path d="M1481,402L1369,585L1540,557Z" fill="#e8e8e8" stroke="#e8e8e8" stroke-width="1.51"/><path d="M1369,585L1435,648L1540,557Z" fill="#e6e6e6" stroke="#e6e6e6" stroke-width="1.51"/><path d="M1373,-155L1379,-76L1466,-204Z" fill="#c2c2c2" stroke="#c2c2c2" stroke-width="1.51"/><path d="M1295,262L1333,416L1481,402Z" fill="#e2e2e2" stroke="#e2e2e2" stroke-width="1.51"/><path d="M1333,416L1369,585L1481,402Z" fill="#e8e8e8" stroke="#e8e8e8" stroke-width="1.51"/><path d="M1346,818L1323,990L1487,1007Z" fill="#d4d4d4" stroke="#d4d4d4" stroke-width="1.51"/><path d="M1467,1093L1308,1164L1489,1288Z" fill="#c3c3c3" stroke="#c3c3c3" stroke-width="1.51"/><path d="M1308,1164L1356,1317L1489,1288Z" fill="#c1c1c1" stroke="#c1c1c1" stroke-width="1.51"/><path d="M1295,262L1481,402L1514,265Z" fill="#dcdcdc" stroke="#dcdcdc" stroke-width="1.51"/><path d="M1368,94L1295,262L1514,265Z" fill="#d8d8d8" stroke="#d8d8d8" stroke-width="1.51"/><path d="M461,1269L191,1289L610,1287Z" fill="#bbbbbb" stroke="#bbbbbb" stroke-width="1.51"/><path d="M1323,990L1467,1093L1487,1007Z" fill="#cccccc" stroke="#cccccc" stroke-width="1.51"/><path d="M1435,648L1346,818L1471,790Z" fill="#dedede" stroke="#dedede" stroke-width="1.51"/><path d="M1039,1293L834,1327L1173,1322Z" fill="#cdcdcd" stroke="#cdcdcd" stroke-width="1.51"/><path d="M1323,990L1308,1164L1467,1093Z" fill="#cccccc" stroke="#cccccc" stroke-width="1.51"/><path d="M1306,639L1346,818L1435,648Z" fill="#e3e3e3" stroke="#e3e3e3" stroke-width="1.51"/><path d="M1379,-76L1368,94L1451,-25Z" fill="#cacaca" stroke="#cacaca" stroke-width="1.51"/><path d="M1369,585L1306,639L1435,648Z" fill="#e8e8e8" stroke="#e8e8e8" stroke-width="1.51"/><path d="M1186,856L1214,976L1323,990Z" fill="#dadada" stroke="#dadada" stroke-width="1.51"/><path d="M1186,856L1323,990L1346,818Z" fill="#dbdbdb" stroke="#dbdbdb" stroke-width="1.51"/><path d="M1306,639L1234,723L1346,818Z" fill="#e5e5e5" stroke="#e5e5e5" stroke-width="1.51"/><path d="M1240,71L1295,262L1368,94Z" fill="#d8d8d8" stroke="#d8d8d8" stroke-width="1.51"/><path d="M1333,416L1176,427L1369,585Z" fill="#ececec" stroke="#ececec" stroke-width="1.51"/><path d="M1176,427L1306,639L1369,585Z" fill="#f0f0f0" stroke="#f0f0f0" stroke-width="1.51"/><path d="M1240,71L1368,94L1379,-76Z" fill="#cfcfcf" stroke="#cfcfcf" stroke-width="1.51"/><path d="M1373,-155L1159,-70L1379,-76Z" fill="#c9c9c9" stroke="#c9c9c9" stroke-width="1.51"/><path d="M1159,-70L1240,71L1379,-76Z" fill="#cfcfcf" stroke="#cfcfcf" stroke-width="1.51"/><path d="M1176,427L1137,584L1306,639Z" fill="#f4f4f4" stroke="#f4f4f4" stroke-width="1.51"/><path d="M1129,-240L1159,-70L1373,-155Z" fill="#c9c9c9" stroke="#c9c9c9" stroke-width="1.51"/><path d="M1308,1164L1173,1322L1356,1317Z" fill="#c5c5c5" stroke="#c5c5c5" stroke-width="1.51"/><path d="M1214,976L1308,1164L1323,990Z" fill="#d2d2d2" stroke="#d2d2d2" stroke-width="1.51"/><path d="M1194,267L1176,427L1295,262Z" fill="#e5e5e5" stroke="#e5e5e5" stroke-width="1.51"/><path d="M1295,262L1176,427L1333,416Z" fill="#e6e6e6" stroke="#e6e6e6" stroke-width="1.51"/><path d="M1234,723L1186,856L1346,818Z" fill="#e2e2e2" stroke="#e2e2e2" stroke-width="1.51"/><path d="M1240,71L1194,267L1295,262Z" fill="#dedede" stroke="#dedede" stroke-width="1.51"/><path d="M1214,976L1145,1160L1308,1164Z" fill="#d1d1d1" stroke="#d1d1d1" stroke-width="1.51"/><path d="M1145,1160L1173,1322L1308,1164Z" fill="#cbcbcb" stroke="#cbcbcb" stroke-width="1.51"/><path d="M1137,584L1234,723L1306,639Z" fill="#ececec" stroke="#ececec" stroke-width="1.51"/><path d="M1137,584L1084,641L1234,723Z" fill="#efefef" stroke="#efefef" stroke-width="1.51"/><path d="M1159,-70L1038,-23L1240,71Z" fill="#d5d5d5" stroke="#d5d5d5" stroke-width="1.51"/><path d="M1038,-23L1021,138L1240,71Z" fill="#dbdbdb" stroke="#dbdbdb" stroke-width="1.51"/><path d="M1043,203L1194,267L1240,71Z" fill="#e0e0e0" stroke="#e0e0e0" stroke-width="1.51"/><path d="M1021,138L1043,203L1240,71Z" fill="#e0e0e0" stroke="#e0e0e0" stroke-width="1.51"/><path d="M1018,1004L1145,1160L1214,976Z" fill="#d8d8d8" stroke="#d8d8d8" stroke-width="1.51"/><path d="M1084,641L1186,856L1234,723Z" fill="#e9e9e9" stroke="#e9e9e9" stroke-width="1.51"/><path d="M1129,-240L1039,-154L1159,-70Z" fill="#cdcdcd" stroke="#cdcdcd" stroke-width="1.51"/><path d="M1084,641L1087,890L1186,856Z" fill="#e8e8e8" stroke="#e8e8e8" stroke-width="1.51"/><path d="M1009,400L1176,427L1194,267Z" fill="#ededed" stroke="#ededed" stroke-width="1.51"/><path d="M1087,890L1018,1004L1214,976Z" fill="#dedede" stroke="#dedede" stroke-width="1.51"/><path d="M1186,856L1087,890L1214,976Z" fill="#dfdfdf" stroke="#dfdfdf" stroke-width="1.51"/><path d="M1145,1160L1039,1293L1173,1322Z" fill="#cbcbcb" stroke="#cbcbcb" stroke-width="1.51"/><path d="M1057,553L1137,584L1176,427Z" fill="#f7f7f7" stroke="#f7f7f7" stroke-width="1.51"/><path d="M1043,203L1009,400L1194,267Z" fill="#eaeaea" stroke="#eaeaea" stroke-width="1.51"/><path d="M1018,1004L984,1093L1145,1160Z" fill="#d9d9d9" stroke="#d9d9d9" stroke-width="1.51"/><path d="M1009,400L1057,553L1176,427Z" fill="#f5f5f5" stroke="#f5f5f5" stroke-width="1.51"/><path d="M1084,641L927,830L1087,890Z" fill="#ececec" stroke="#ececec" stroke-width="1.51"/><path d="M1039,-154L1038,-23L1159,-70Z" fill="#d4d4d4" stroke="#d4d4d4" stroke-width="1.51"/><path d="M984,1093L1039,1293L1145,1160Z" fill="#d3d3d3" stroke="#d3d3d3" stroke-width="1.51"/><path d="M864,-191L1039,-154L1129,-240Z" fill="#cfcfcf" stroke="#cfcfcf" stroke-width="1.51"/><path d="M1057,553L1084,641L1137,584Z" fill="#f6f6f6" stroke="#f6f6f6" stroke-width="1.51"/><path d="M938,63L1021,138L1038,-23Z" fill="#e0e0e0" stroke="#e0e0e0" stroke-width="1.51"/><path d="M984,1093L905,1145L1039,1293Z" fill="#d7d7d7" stroke="#d7d7d7" stroke-width="1.51"/><path d="M846,716L927,830L1084,641Z" fill="#f2f2f2" stroke="#f2f2f2" stroke-width="1.51"/><path d="M918,583L846,716L1084,641Z" fill="#f8f8f8" stroke="#f8f8f8" stroke-width="1.51"/><path d="M927,830L1018,1004L1087,890Z" fill="#e6e6e6" stroke="#e6e6e6" stroke-width="1.51"/><path d="M1057,553L918,583L1084,641Z" fill="#f9f9f9" stroke="#f9f9f9" stroke-width="1.51"/><path d="M883,439L918,583L1009,400Z" fill="#fafafa" stroke="#fafafa" stroke-width="1.51"/><path d="M851,-41L1038,-23L1039,-154Z" fill="#d8d8d8" stroke="#d8d8d8" stroke-width="1.51"/><path d="M833,291L1009,400L1043,203Z" fill="#f0f0f0" stroke="#f0f0f0" stroke-width="1.51"/><path d="M1009,400L918,583L1057,553Z" fill="#fbfbfb" stroke="#fbfbfb" stroke-width="1.51"/><path d="M905,1145L834,1327L1039,1293Z" fill="#d1d1d1" stroke="#d1d1d1" stroke-width="1.51"/><path d="M864,-191L851,-41L1039,-154Z" fill="#d3d3d3" stroke="#d3d3d3" stroke-width="1.51"/><path d="M1021,138L833,291L1043,203Z" fill="#eaeaea" stroke="#eaeaea" stroke-width="1.51"/><path d="M927,830L857,1018L1018,1004Z" fill="#e4e4e4" stroke="#e4e4e4" stroke-width="1.51"/><path d="M851,-41L938,63L1038,-23Z" fill="#dcdcdc" stroke="#dcdcdc" stroke-width="1.51"/><path d="M779,217L833,291L938,63Z" fill="#e4e4e4" stroke="#e4e4e4" stroke-width="1.51"/><path d="M833,291L883,439L1009,400Z" fill="#f2f2f2" stroke="#f2f2f2" stroke-width="1.51"/><path d="M938,63L833,291L1021,138Z" fill="#e6e6e6" stroke="#e6e6e6" stroke-width="1.51"/><path d="M857,1018L984,1093L1018,1004Z" fill="#dfdfdf" stroke="#dfdfdf" stroke-width="1.51"/><path d="M453,-238L556,-192L761,-201Z" fill="#c1c1c1" stroke="#c1c1c1" stroke-width="1.51"/><path d="M857,1018L905,1145L984,1093Z" fill="#dbdbdb" stroke="#dbdbdb" stroke-width="1.51"/><path d="M710,895L857,1018L927,830Z" fill="#e2e2e2" stroke="#e2e2e2" stroke-width="1.51"/><path d="M851,-41L697,112L938,63Z" fill="#dbdbdb" stroke="#dbdbdb" stroke-width="1.51"/><path d="M697,112L779,217L938,63Z" fill="#dfdfdf" stroke="#dfdfdf" stroke-width="1.51"/><path d="M833,291L776,373L883,439Z" fill="#eeeeee" stroke="#eeeeee" stroke-width="1.51"/><path d="M754,1147L834,1327L905,1145Z" fill="#d0d0d0" stroke="#d0d0d0" stroke-width="1.51"/><path d="M770,656L846,716L918,583Z" fill="#f3f3f3" stroke="#f3f3f3" stroke-width="1.51"/><path d="M883,439L745,487L918,583Z" fill="#f7f7f7" stroke="#f7f7f7" stroke-width="1.51"/><path d="M846,716L710,895L927,830Z" fill="#e8e8e8" stroke="#e8e8e8" stroke-width="1.51"/><path d="M745,487L770,656L918,583Z" fill="#f6f6f6" stroke="#f6f6f6" stroke-width="1.51"/><path d="M857,1018L754,1147L905,1145Z" fill="#d7d7d7" stroke="#d7d7d7" stroke-width="1.51"/><path d="M754,1147L691,1252L834,1327Z" fill="#cbcbcb" stroke="#cbcbcb" stroke-width="1.51"/><path d="M714,-52L697,112L851,-41Z" fill="#d5d5d5" stroke="#d5d5d5" stroke-width="1.51"/><path d="M710,895L701,966L857,1018Z" fill="#dcdcdc" stroke="#dcdcdc" stroke-width="1.51"/><path d="M761,-201L851,-41L864,-191Z" fill="#cecece" stroke="#cecece" stroke-width="1.51"/><path d="M776,373L745,487L883,439Z" fill="#f1f1f1" stroke="#f1f1f1" stroke-width="1.51"/><path d="M761,-201L714,-52L851,-41Z" fill="#d0d0d0" stroke="#d0d0d0" stroke-width="1.51"/><path d="M770,656L710,895L846,716Z" fill="#e9e9e9" stroke="#e9e9e9" stroke-width="1.51"/><path d="M701,966L754,1147L857,1018Z" fill="#d8d8d8" stroke="#d8d8d8" stroke-width="1.51"/><path d="M691,1252L610,1287L834,1327Z" fill="#c6c6c6" stroke="#c6c6c6" stroke-width="1.51"/><path d="M779,217L776,373L833,291Z" fill="#e8e8e8" stroke="#e8e8e8" stroke-width="1.51"/><path d="M561,741L588,871L710,895Z" fill="#dedede" stroke="#dedede" stroke-width="1.51"/><path d="M561,741L710,895L770,656Z" fill="#e5e5e5" stroke="#e5e5e5" stroke-width="1.51"/><path d="M745,487L539,566L770,656Z" fill="#f1f1f1" stroke="#f1f1f1" stroke-width="1.51"/><path d="M617,371L745,487L776,373Z" fill="#ececec" stroke="#ececec" stroke-width="1.51"/><path d="M697,112L590,231L779,217Z" fill="#dddddd" stroke="#dddddd" stroke-width="1.51"/><path d="M617,371L776,373L779,217Z" fill="#e7e7e7" stroke="#e7e7e7" stroke-width="1.51"/><path d="M590,231L617,371L779,217Z" fill="#e1e1e1" stroke="#e1e1e1" stroke-width="1.51"/><path d="M701,966L537,1125L754,1147Z" fill="#d1d1d1" stroke="#d1d1d1" stroke-width="1.51"/><path d="M556,-192L714,-52L761,-201Z" fill="#c9c9c9" stroke="#c9c9c9" stroke-width="1.51"/><path d="M539,566L561,741L770,656Z" fill="#e9e9e9" stroke="#e9e9e9" stroke-width="1.51"/><path d="M594,34L697,112L714,-52Z" fill="#d3d3d3" stroke="#d3d3d3" stroke-width="1.51"/><path d="M537,1125L691,1252L754,1147Z" fill="#cbcbcb" stroke="#cbcbcb" stroke-width="1.51"/><path d="M617,371L539,566L745,487Z" fill="#ededed" stroke="#ededed" stroke-width="1.51"/><path d="M537,1125L610,1287L691,1252Z" fill="#c6c6c6" stroke="#c6c6c6" stroke-width="1.51"/><path d="M581,944L537,1125L701,966Z" fill="#d3d3d3" stroke="#d3d3d3" stroke-width="1.51"/><path d="M581,944L701,966L710,895Z" fill="#d9d9d9" stroke="#d9d9d9" stroke-width="1.51"/><path d="M533,-64L594,34L714,-52Z" fill="#cdcdcd" stroke="#cdcdcd" stroke-width="1.51"/><path d="M556,-192L533,-64L714,-52Z" fill="#c8c8c8" stroke="#c8c8c8" stroke-width="1.51"/><path d="M588,871L581,944L710,895Z" fill="#dadada" stroke="#dadada" stroke-width="1.51"/><path d="M594,34L590,231L697,112Z" fill="#d7d7d7" stroke="#d7d7d7" stroke-width="1.51"/><path d="M270,1253L191,1289L461,1269Z" fill="#b6b6b6" stroke="#b6b6b6" stroke-width="1.51"/><path d="M474,1101L537,1125L581,944Z" fill="#cccccc" stroke="#cccccc" stroke-width="1.51"/><path d="M435,118L590,231L594,34Z" fill="#d3d3d3" stroke="#d3d3d3" stroke-width="1.51"/><path d="M537,1125L461,1269L610,1287Z" fill="#c3c3c3" stroke="#c3c3c3" stroke-width="1.51"/><path d="M472,506L539,566L617,371Z" fill="#e9e9e9" stroke="#e9e9e9" stroke-width="1.51"/><path d="M439,371L472,506L617,371Z" fill="#e3e3e3" stroke="#e3e3e3" stroke-width="1.51"/><path d="M590,231L462,265L617,371Z" fill="#dedede" stroke="#dedede" stroke-width="1.51"/><path d="M462,265L439,371L617,371Z" fill="#dedede" stroke="#dedede" stroke-width="1.51"/><path d="M539,566L408,713L561,741Z" fill="#e3e3e3" stroke="#e3e3e3" stroke-width="1.51"/><path d="M398,976L474,1101L581,944Z" fill="#cdcdcd" stroke="#cdcdcd" stroke-width="1.51"/><path d="M561,741L404,826L588,871Z" fill="#dbdbdb" stroke="#dbdbdb" stroke-width="1.51"/><path d="M435,118L462,265L590,231Z" fill="#d6d6d6" stroke="#d6d6d6" stroke-width="1.51"/><path d="M533,-64L435,118L594,34Z" fill="#cccccc" stroke="#cccccc" stroke-width="1.51"/><path d="M404,826L581,944L588,871Z" fill="#d7d7d7" stroke="#d7d7d7" stroke-width="1.51"/><path d="M404,826L398,976L581,944Z" fill="#d2d2d2" stroke="#d2d2d2" stroke-width="1.51"/><path d="M418,-53L435,118L533,-64Z" fill="#c8c8c8" stroke="#c8c8c8" stroke-width="1.51"/><path d="M453,-238L418,-53L533,-64Z" fill="#c1c1c1" stroke="#c1c1c1" stroke-width="1.51"/><path d="M474,1101L461,1269L537,1125Z" fill="#c4c4c4" stroke="#c4c4c4" stroke-width="1.51"/><path d="M453,-238L533,-64L556,-192Z" fill="#c1c1c1" stroke="#c1c1c1" stroke-width="1.51"/><path d="M408,713L404,826L561,741Z" fill="#dbdbdb" stroke="#dbdbdb" stroke-width="1.51"/><path d="M92,-243L299,-177L453,-238Z" fill="#b4b4b4" stroke="#b4b4b4" stroke-width="1.51"/><path d="M472,506L408,713L539,566Z" fill="#e6e6e6" stroke="#e6e6e6" stroke-width="1.51"/><path d="M418,-53L310,46L435,118Z" fill="#c7c7c7" stroke="#c7c7c7" stroke-width="1.51"/><path d="M322,-112L418,-53L453,-238Z" fill="#bebebe" stroke="#bebebe" stroke-width="1.51"/><path d="M299,-177L322,-112L453,-238Z" fill="#bababa" stroke="#bababa" stroke-width="1.51"/><path d="M265,646L408,713L472,506Z" fill="#e1e1e1" stroke="#e1e1e1" stroke-width="1.51"/><path d="M236,561L265,646L472,506Z" fill="#e2e2e2" stroke="#e2e2e2" stroke-width="1.51"/><path d="M439,371L328,366L472,506Z" fill="#dfdfdf" stroke="#dfdfdf" stroke-width="1.51"/><path d="M398,976L256,1033L474,1101Z" fill="#c7c7c7" stroke="#c7c7c7" stroke-width="1.51"/><path d="M256,1033L278,1170L474,1101Z" fill="#c2c2c2" stroke="#c2c2c2" stroke-width="1.51"/><path d="M278,1170L461,1269L474,1101Z" fill="#c0c0c0" stroke="#c0c0c0" stroke-width="1.51"/><path d="M278,1170L270,1253L461,1269Z" fill="#bababa" stroke="#bababa" stroke-width="1.51"/><path d="M435,118L231,296L462,265Z" fill="#d2d2d2" stroke="#d2d2d2" stroke-width="1.51"/><path d="M328,366L236,561L472,506Z" fill="#e1e1e1" stroke="#e1e1e1" stroke-width="1.51"/><path d="M231,296L328,366L462,265Z" fill="#d6d6d6" stroke="#d6d6d6" stroke-width="1.51"/><path d="M328,366L439,371L462,265Z" fill="#dadada" stroke="#dadada" stroke-width="1.51"/><path d="M310,46L231,296L435,118Z" fill="#cccccc" stroke="#cccccc" stroke-width="1.51"/><path d="M297,805L398,976L404,826Z" fill="#d1d1d1" stroke="#d1d1d1" stroke-width="1.51"/><path d="M297,805L404,826L408,713Z" fill="#d7d7d7" stroke="#d7d7d7" stroke-width="1.51"/><path d="M322,-112L310,46L418,-53Z" fill="#c1c1c1" stroke="#c1c1c1" stroke-width="1.51"/><path d="M297,805L256,1033L398,976Z" fill="#cbcbcb" stroke="#cbcbcb" stroke-width="1.51"/><path d="M265,646L297,805L408,713Z" fill="#d8d8d8" stroke="#d8d8d8" stroke-width="1.51"/><path d="M165,819L146,1009L256,1033Z" fill="#c5c5c5" stroke="#c5c5c5" stroke-width="1.51"/><path d="M165,819L256,1033L297,805Z" fill="#cbcbcb" stroke="#cbcbcb" stroke-width="1.51"/><path d="M153,46L231,296L310,46Z" fill="#c6c6c6" stroke="#c6c6c6" stroke-width="1.51"/><path d="M167,-31L310,46L322,-112Z" fill="#bebebe" stroke="#bebebe" stroke-width="1.51"/><path d="M138,435L236,561L328,366Z" fill="#dadada" stroke="#dadada" stroke-width="1.51"/><path d="M231,296L138,435L328,366Z" fill="#d5d5d5" stroke="#d5d5d5" stroke-width="1.51"/><path d="M265,646L165,819L297,805Z" fill="#d3d3d3" stroke="#d3d3d3" stroke-width="1.51"/><path d="M299,-177L167,-31L322,-112Z" fill="#bababa" stroke="#bababa" stroke-width="1.51"/><path d="M153,46L133,294L231,296Z" fill="#c9c9c9" stroke="#c9c9c9" stroke-width="1.51"/><path d="M138,435L166,540L236,561Z" fill="#dcdcdc" stroke="#dcdcdc" stroke-width="1.51"/><path d="M167,-31L153,46L310,46Z" fill="#bfbfbf" stroke="#bfbfbf" stroke-width="1.51"/><path d="M256,1033L123,1147L278,1170Z" fill="#bcbcbc" stroke="#bcbcbc" stroke-width="1.51"/><path d="M92,-243L167,-31L299,-177Z" fill="#b4b4b4" stroke="#b4b4b4" stroke-width="1.51"/><path d="M87,711L165,819L265,646Z" fill="#d2d2d2" stroke="#d2d2d2" stroke-width="1.51"/><path d="M191,1289L270,1253L278,1170Z" fill="#b6b6b6" stroke="#b6b6b6" stroke-width="1.51"/><path d="M123,1147L191,1289L278,1170Z" fill="#b6b6b6" stroke="#b6b6b6" stroke-width="1.51"/><path d="M146,1009L123,1147L256,1033Z" fill="#bebebe" stroke="#bebebe" stroke-width="1.51"/><path d="M236,561L166,540L265,646Z" fill="#dddddd" stroke="#dddddd" stroke-width="1.51"/><path d="M166,540L87,711L265,646Z" fill="#d7d7d7" stroke="#d7d7d7" stroke-width="1.51"/><path d="M133,294L138,435L231,296Z" fill="#d1d1d1" stroke="#d1d1d1" stroke-width="1.51"/><path d="M-58,146L133,294L153,46Z" fill="#c2c2c2" stroke="#c2c2c2" stroke-width="1.51"/><path d="M0,885L146,1009L165,819Z" fill="#c4c4c4" stroke="#c4c4c4" stroke-width="1.51"/><path d="M20,680L87,711L166,540Z" fill="#d4d4d4" stroke="#d4d4d4" stroke-width="1.51"/><path d="M7,550L20,680L166,540Z" fill="#d5d5d5" stroke="#d5d5d5" stroke-width="1.51"/><path d="M92,-243L16,-53L167,-31Z" fill="#b3b3b3" stroke="#b3b3b3" stroke-width="1.51"/><path d="M123,1147L1,1320L191,1289Z" fill="#afafaf" stroke="#afafaf" stroke-width="1.51"/><path d="M-58,146L-51,270L133,294Z" fill="#c4c4c4" stroke="#c4c4c4" stroke-width="1.51"/><path d="M138,435L7,550L166,540Z" fill="#d8d8d8" stroke="#d8d8d8" stroke-width="1.51"/><path d="M16,-53L153,46L167,-31Z" fill="#b9b9b9" stroke="#b9b9b9" stroke-width="1.51"/><path d="M87,711L0,885L165,819Z" fill="#c9c9c9" stroke="#c9c9c9" stroke-width="1.51"/><path d="M-46,-155L16,-53L92,-243Z" fill="#adadad" stroke="#adadad" stroke-width="1.51"/><path d="M-32,992L-26,1156L123,1147Z" fill="#b5b5b5" stroke="#b5b5b5" stroke-width="1.51"/><path d="M-26,1156L1,1320L123,1147Z" fill="#afafaf" stroke="#afafaf" stroke-width="1.51"/><path d="M133,294L-69,430L138,435Z" fill="#d0d0d0" stroke="#d0d0d0" stroke-width="1.51"/><path d="M-32,992L123,1147L146,1009Z" fill="#bababa" stroke="#bababa" stroke-width="1.51"/><path d="M0,885L-32,992L146,1009Z" fill="#bebebe" stroke="#bebebe" stroke-width="1.51"/><path d="M16,-53L-58,146L153,46Z" fill="#b9b9b9" stroke="#b9b9b9" stroke-width="1.51"/><path d="M-51,270L-69,430L133,294Z" fill="#cacaca" stroke="#cacaca" stroke-width="1.51"/><path d="M-69,430L7,550L138,435Z" fill="#d2d2d2" stroke="#d2d2d2" stroke-width="1.51"/><path d="M20,680L0,885L87,711Z" fill="#cacaca" stroke="#cacaca" stroke-width="1.51"/><path d="M-194,-213L-46,-155L92,-243Z" fill="#a7a7a7" stroke="#a7a7a7" stroke-width="1.51"/><path d="M-32,992L-141,1091L-26,1156Z" fill="#b3b3b3" stroke="#b3b3b3" stroke-width="1.51"/><path d="M-26,1156L-140,1315L1,1320Z" fill="#a8a8a8" stroke="#a8a8a8" stroke-width="1.51"/><path d="M-69,430L-116,536L7,550Z" fill="#d1d1d1" stroke="#d1d1d1" stroke-width="1.51"/><path d="M-143,137L-58,146L16,-53Z" fill="#b7b7b7" stroke="#b7b7b7" stroke-width="1.51"/><path d="M-207,-82L-143,137L16,-53Z" fill="#b1b1b1" stroke="#b1b1b1" stroke-width="1.51"/><path d="M-121,729L0,885L20,680Z" fill="#c7c7c7" stroke="#c7c7c7" stroke-width="1.51"/><path d="M7,550L-116,536L20,680Z" fill="#d2d2d2" stroke="#d2d2d2" stroke-width="1.51"/><path d="M-116,536L-121,729L20,680Z" fill="#cccccc" stroke="#cccccc" stroke-width="1.51"/><path d="M-46,-155L-207,-82L16,-53Z" fill="#acacac" stroke="#acacac" stroke-width="1.51"/><path d="M-121,729L-215,854L0,885Z" fill="#c0c0c0" stroke="#c0c0c0" stroke-width="1.51"/><path d="M-215,854L-32,992L0,885Z" fill="#bcbcbc" stroke="#bcbcbc" stroke-width="1.51"/><path d="M-218,346L-69,430L-51,270Z" fill="#c5c5c5" stroke="#c5c5c5" stroke-width="1.51"/><path d="M-58,146L-171,234L-51,270Z" fill="#bfbfbf" stroke="#bfbfbf" stroke-width="1.51"/><path d="M-215,854L-214,1041L-32,992Z" fill="#b6b6b6" stroke="#b6b6b6" stroke-width="1.51"/><path d="M-141,1091L-140,1315L-26,1156Z" fill="#ababab" stroke="#ababab" stroke-width="1.51"/><path d="M-214,1041L-141,1091L-32,992Z" fill="#b2b2b2" stroke="#b2b2b2" stroke-width="1.51"/><path d="M-143,137L-171,234L-58,146Z" fill="#bababa" stroke="#bababa" stroke-width="1.51"/><path d="M-171,234L-218,346L-51,270Z" fill="#c0c0c0" stroke="#c0c0c0" stroke-width="1.51"/><path d="M-194,-213L-207,-82L-46,-155Z" fill="#a6a6a6" stroke="#a6a6a6" stroke-width="1.51"/><path d="M-218,346L-116,536L-69,430Z" fill="#cacaca" stroke="#cacaca" stroke-width="1.51"/><path d="M-141,1091L-214,1041L-140,1315Z" fill="#aaaaaa" stroke="#aaaaaa" stroke-width="1.51"/><path d="M-215,854L-121,729L-116,536Z" fill="#c5c5c5" stroke="#c5c5c5" stroke-width="1.51"/><path d="M-218,346L-215,854L-116,536Z" fill="#cccccc" stroke="#cccccc" stroke-width="1.51"/><path d="M-207,-82L-171,234L-143,137Z" fill="#b4b4b4" stroke="#b4b4b4" stroke-width="1.51"/><path d="M-207,-82L-218,346L-171,234Z" fill="#b7b7b7" stroke="#b7b7b7" stroke-width="1.51"/></svg>